<svg width="117" height="40" viewBox="0 0 117 40" fill="none" xmlns="http://www.w3.org/2000/svg">
<g filter="url(#filter0_d_2_1207)">
<path d="M44.1683 12.47V15.62H48.3983V17.618H44.1683V20.948H48.9383V23H41.6483V10.418H48.9383V12.47H44.1683ZM55.3863 20.678L57.9063 13.028H60.5883L56.8983 23H53.8383L50.1663 13.028H52.8663L55.3863 20.678ZM71.2737 17.798C71.2737 18.158 71.2497 18.482 71.2017 18.77H63.9117C63.9717 19.49 64.2237 20.054 64.6677 20.462C65.1117 20.87 65.6577 21.074 66.3057 21.074C67.2417 21.074 67.9077 20.672 68.3037 19.868H71.0217C70.7337 20.828 70.1817 21.62 69.3657 22.244C68.5497 22.856 67.5477 23.162 66.3597 23.162C65.3997 23.162 64.5357 22.952 63.7677 22.532C63.0117 22.1 62.4177 21.494 61.9857 20.714C61.5657 19.934 61.3557 19.034 61.3557 18.014C61.3557 16.982 61.5657 16.076 61.9857 15.296C62.4057 14.516 62.9937 13.916 63.7497 13.496C64.5057 13.076 65.3757 12.866 66.3597 12.866C67.3077 12.866 68.1537 13.07 68.8977 13.478C69.6537 13.886 70.2357 14.468 70.6437 15.224C71.0637 15.968 71.2737 16.826 71.2737 17.798ZM68.6637 17.078C68.6517 16.43 68.4177 15.914 67.9617 15.53C67.5057 15.134 66.9477 14.936 66.2877 14.936C65.6637 14.936 65.1357 15.128 64.7037 15.512C64.2837 15.884 64.0257 16.406 63.9297 17.078H68.6637ZM78.6391 12.884C79.8271 12.884 80.7871 13.262 81.5191 14.018C82.2511 14.762 82.6171 15.806 82.6171 17.15V23H80.0971V17.492C80.0971 16.7 79.8991 16.094 79.5031 15.674C79.1071 15.242 78.5671 15.026 77.8831 15.026C77.1871 15.026 76.6351 15.242 76.2271 15.674C75.8311 16.094 75.6331 16.7 75.6331 17.492V23H73.1131V13.028H75.6331V14.27C75.9691 13.838 76.3951 13.502 76.9111 13.262C77.4391 13.01 78.0151 12.884 78.6391 12.884ZM87.9475 15.098V19.922C87.9475 20.258 88.0255 20.504 88.1815 20.66C88.3495 20.804 88.6255 20.876 89.0095 20.876H90.1795V23H88.5955C86.4715 23 85.4095 21.968 85.4095 19.904V15.098H84.2215V13.028H85.4095V10.562H87.9475V13.028H90.1795V15.098H87.9475ZM93.27 11.84C92.826 11.84 92.454 11.702 92.154 11.426C91.866 11.138 91.722 10.784 91.722 10.364C91.722 9.944 91.866 9.596 92.154 9.32C92.454 9.032 92.826 8.888 93.27 8.888C93.714 8.888 94.08 9.032 94.368 9.32C94.668 9.596 94.818 9.944 94.818 10.364C94.818 10.784 94.668 11.138 94.368 11.426C94.08 11.702 93.714 11.84 93.27 11.84ZM94.512 13.028V23H91.992V13.028H94.512Z" fill="white"/>
<path d="M101.574 15.098H99.8278V23H97.2718V15.098H96.1378V13.028H97.2718V12.524C97.2718 11.3 97.6198 10.4 98.3158 9.824C99.0118 9.248 100.062 8.978 101.466 9.014V11.138C100.854 11.126 100.428 11.228 100.188 11.444C99.9478 11.66 99.8278 12.05 99.8278 12.614V13.028H101.574V15.098ZM112.747 13.028L106.573 27.716H103.891L106.051 22.748L102.055 13.028H104.881L107.455 19.994L110.065 13.028H112.747Z" fill="#8A42D8"/>
<path d="M20.4062 0C17.2417 -3.77363e-08 14.1483 0.938383 11.5171 2.69649C8.88594 4.45459 6.83518 6.95345 5.62418 9.87706C4.41318 12.8007 4.09632 16.0177 4.71368 19.1214C5.33105 22.2251 6.8549 25.0761 9.09254 27.3137C11.3302 29.5513 14.1811 31.0752 17.2848 31.6926C20.3885 32.3099 23.6056 31.9931 26.5292 30.7821C29.4528 29.5711 31.9517 27.5203 33.7098 24.8891C35.4679 22.2579 36.4062 19.1645 36.4062 16L28.4062 16C28.4062 17.5823 27.9371 19.129 27.058 20.4446C26.179 21.7602 24.9295 22.7855 23.4677 23.391C22.0059 23.9965 20.3974 24.155 18.8455 23.8463C17.2937 23.5376 15.8682 22.7757 14.7494 21.6569C13.6306 20.538 12.8686 19.1126 12.56 17.5607C12.2513 16.0089 12.4097 14.4003 13.0152 12.9385C13.6207 11.4767 14.6461 10.2273 15.9617 9.34824C17.2773 8.46919 18.824 8 20.4062 8V0Z" fill="white"/>
<path d="M20.4062 0C18.3051 -2.5056e-08 16.2245 0.413852 14.2833 1.21793C12.3421 2.022 10.5783 3.20055 9.09254 4.68629C7.6068 6.17203 6.42825 7.93586 5.62418 9.87707C4.8201 11.8183 4.40625 13.8989 4.40625 16H12.4062C12.4062 14.9494 12.6132 13.9091 13.0152 12.9385C13.4173 11.9679 14.0065 11.086 14.7494 10.3431C15.4923 9.60028 16.3742 9.011 17.3448 8.60896C18.3154 8.20693 19.3557 8 20.4062 8V0Z" fill="#8A42D8"/>
<circle cx="20.4062" cy="16" r="5" fill="#8A42D8"/>
<path d="M25.4062 16C25.4062 15.3434 25.2769 14.6932 25.0256 14.0866C24.7744 13.48 24.4061 12.9288 23.9418 12.4645C23.4775 12.0002 22.9263 11.6319 22.3197 11.3806C21.713 11.1293 21.0629 11 20.4062 11C19.7496 11 19.0995 11.1293 18.4928 11.3806C17.8862 11.6319 17.335 12.0002 16.8707 12.4645C16.4064 12.9288 16.0381 13.48 15.7869 14.0866C15.5356 14.6932 15.4062 15.3434 15.4063 16L20.4062 16H25.4062Z" fill="white"/>
</g>
<defs>
<filter id="filter0_d_2_1207" x="0.40625" y="0" width="116.341" height="40" filterUnits="userSpaceOnUse" color-interpolation-filters="sRGB">
<feFlood flood-opacity="0" result="BackgroundImageFix"/>
<feColorMatrix in="SourceAlpha" type="matrix" values="0 0 0 0 0 0 0 0 0 0 0 0 0 0 0 0 0 0 127 0" result="hardAlpha"/>
<feOffset dy="4"/>
<feGaussianBlur stdDeviation="2"/>
<feComposite in2="hardAlpha" operator="out"/>
<feColorMatrix type="matrix" values="0 0 0 0 0 0 0 0 0 0 0 0 0 0 0 0 0 0 0.25 0"/>
<feBlend mode="normal" in2="BackgroundImageFix" result="effect1_dropShadow_2_1207"/>
<feBlend mode="normal" in="SourceGraphic" in2="effect1_dropShadow_2_1207" result="shape"/>
</filter>
</defs>
</svg>
